<svg id="visual" viewBox="0 0 960 540" width="960" height="540" xmlns="http://www.w3.org/2000/svg" xmlns:xlink="http://www.w3.org/1999/xlink" version="1.1"><rect x="0" y="0" width="960" height="540" fill="#FFFFFF"></rect><defs><linearGradient id="grad1_0" x1="43.8%" y1="0%" x2="100%" y2="100%"><stop offset="14.444444444444446%" stop-color="#ffffff" stop-opacity="1"></stop><stop offset="85.55555555555554%" stop-color="#ffffff" stop-opacity="1"></stop></linearGradient></defs><defs><linearGradient id="grad2_0" x1="0%" y1="0%" x2="56.3%" y2="100%"><stop offset="14.444444444444446%" stop-color="#ffffff" stop-opacity="1"></stop><stop offset="85.55555555555554%" stop-color="#ffffff" stop-opacity="1"></stop></linearGradient></defs><g transform="translate(960, 0)"><path d="M0 297C-41.6 296.4 -83.2 295.9 -113.7 274.4C-144.1 252.9 -163.3 210.5 -176.8 176.8C-190.3 143 -198 118 -217.1 89.9C-236.2 61.9 -266.6 31 -297 0L0 0Z" fill="#E1B083"></path></g><g transform="translate(0, 540)"><path d="M0 -297C40.6 -295.1 81.3 -293.2 113.7 -274.4C146.1 -255.6 170.2 -220 188.1 -188.1C206 -156.2 217.6 -127.9 234.7 -97.2C251.8 -66.5 274.4 -33.2 297 0L0 0Z" fill="#E1B083"></path></g></svg>