<svg id="visual" viewBox="0 0 960 540" width="960" height="540" xmlns="http://www.w3.org/2000/svg" xmlns:xlink="http://www.w3.org/1999/xlink" version="1.1"><path d="M0 366L22.8 376.7C45.7 387.3 91.3 408.7 137 414.8C182.7 421 228.3 412 274 414.2C319.7 416.3 365.3 429.7 411.2 426.8C457 424 503 405 548.8 396C594.7 387 640.3 388 686 389.8C731.7 391.7 777.3 394.3 823 397.8C868.7 401.3 914.3 405.7 937.2 407.8L960 410L960 541L937.2 541C914.3 541 868.7 541 823 541C777.3 541 731.7 541 686 541C640.3 541 594.7 541 548.8 541C503 541 457 541 411.2 541C365.3 541 319.7 541 274 541C228.3 541 182.7 541 137 541C91.3 541 45.7 541 22.8 541L0 541Z" fill="#638a55"></path><path d="M0 447L22.8 443C45.7 439 91.3 431 137 424C182.7 417 228.3 411 274 407.5C319.7 404 365.3 403 411.2 411.7C457 420.3 503 438.7 548.8 441.7C594.7 444.7 640.3 432.3 686 425.5C731.7 418.7 777.3 417.3 823 413.2C868.7 409 914.3 402 937.2 398.5L960 395L960 541L937.2 541C914.3 541 868.7 541 823 541C777.3 541 731.7 541 686 541C640.3 541 594.7 541 548.8 541C503 541 457 541 411.2 541C365.3 541 319.7 541 274 541C228.3 541 182.7 541 137 541C91.3 541 45.7 541 22.8 541L0 541Z" fill="#70965c"></path><path d="M0 443L22.8 447.5C45.7 452 91.3 461 137 461C182.7 461 228.3 452 274 446.8C319.7 441.7 365.3 440.3 411.2 437.3C457 434.3 503 429.7 548.8 435.8C594.7 442 640.3 459 686 458.7C731.7 458.3 777.3 440.7 823 437.5C868.7 434.3 914.3 445.7 937.2 451.3L960 457L960 541L937.2 541C914.3 541 868.7 541 823 541C777.3 541 731.7 541 686 541C640.3 541 594.7 541 548.8 541C503 541 457 541 411.2 541C365.3 541 319.7 541 274 541C228.3 541 182.7 541 137 541C91.3 541 45.7 541 22.8 541L0 541Z" fill="#7ea264"></path><path d="M0 487L22.8 487.8C45.7 488.7 91.3 490.3 137 488.3C182.7 486.3 228.3 480.7 274 477.3C319.7 474 365.3 473 411.2 473.5C457 474 503 476 548.8 475.7C594.7 475.3 640.3 472.7 686 468.2C731.7 463.7 777.3 457.3 823 460.2C868.7 463 914.3 475 937.2 481L960 487L960 541L937.2 541C914.3 541 868.7 541 823 541C777.3 541 731.7 541 686 541C640.3 541 594.7 541 548.8 541C503 541 457 541 411.2 541C365.3 541 319.7 541 274 541C228.3 541 182.7 541 137 541C91.3 541 45.7 541 22.8 541L0 541Z" fill="#8cae6c"></path><path d="M0 486L22.8 487.5C45.7 489 91.3 492 137 492.8C182.7 493.7 228.3 492.3 274 493.3C319.7 494.3 365.3 497.7 411.2 500.3C457 503 503 505 548.8 504.5C594.7 504 640.3 501 686 500.8C731.7 500.7 777.3 503.3 823 502.8C868.7 502.3 914.3 498.7 937.2 496.8L960 495L960 541L937.2 541C914.3 541 868.7 541 823 541C777.3 541 731.7 541 686 541C640.3 541 594.7 541 548.8 541C503 541 457 541 411.2 541C365.3 541 319.7 541 274 541C228.3 541 182.7 541 137 541C91.3 541 45.7 541 22.8 541L0 541Z" fill="#9bba74"></path></svg>